<svg xmlns="http://www.w3.org/2000/svg" viewBox="0 0 1200 630" width="1200" height="630">
  <defs>
    <linearGradient id="bg" x1="0" y1="0" x2="1" y2="1">
      <stop offset="0%" stop-color="#14365e"/>
      <stop offset="100%" stop-color="#0a2342"/>
    </linearGradient>
  </defs>
  <rect width="1200" height="630" fill="url(#bg)"/>
  <rect x="0" y="0" width="1200" height="6" fill="#8b6fd4"/>
  <g opacity="0.04">
    <line x1="0" y1="105" x2="1200" y2="105" stroke="white" stroke-width="1"/>
    <line x1="0" y1="210" x2="1200" y2="210" stroke="white" stroke-width="1"/>
    <line x1="0" y1="315" x2="1200" y2="315" stroke="white" stroke-width="1"/>
    <line x1="0" y1="420" x2="1200" y2="420" stroke="white" stroke-width="1"/>
    <line x1="0" y1="525" x2="1200" y2="525" stroke="white" stroke-width="1"/>
    <line x1="200" y1="0" x2="200" y2="630" stroke="white" stroke-width="1"/>
    <line x1="400" y1="0" x2="400" y2="630" stroke="white" stroke-width="1"/>
    <line x1="600" y1="0" x2="600" y2="630" stroke="white" stroke-width="1"/>
    <line x1="800" y1="0" x2="800" y2="630" stroke="white" stroke-width="1"/>
    <line x1="1000" y1="0" x2="1000" y2="630" stroke="white" stroke-width="1"/>
  </g>
  <circle cx="600" cy="175" r="72" fill="white" fill-opacity="0.08"/>
  <circle cx="600" cy="175" r="60" fill="white" fill-opacity="0.06"/>
  <g transform="translate(600,175)" fill="none" stroke="white" stroke-width="3.5" stroke-linecap="round" stroke-linejoin="round">
    <circle cx="0" cy="8" r="30"/>
      <circle cx="0" cy="8" r="18" fill="white" fill-opacity="0.1"/>
      <path d="M-16 -22 L-4 8 L16 8" fill="none"/>
      <path d="M-4 8 L4 -10 L20 -16" fill="none"/>
      <circle cx="20" cy="-16" r="6" fill="white" fill-opacity="0.2"/>
  </g>
  <text x="600" y="256" text-anchor="middle" font-family="Inter,Arial,sans-serif" font-size="18" font-weight="600" fill="#8b6fd4" letter-spacing="2">INSURANCE EDUCATION</text>
  <text x="600" y="284" text-anchor="middle" font-family="Inter,Arial,sans-serif" font-size="44" font-weight="700" fill="white" letter-spacing="-0.5">Michigan Motorcycle Insurance</text>
<text x="600" y="340" text-anchor="middle" font-family="Inter,Arial,sans-serif" font-size="44" font-weight="700" fill="white" letter-spacing="-0.5">Terminology Guide</text>

  <rect x="0" y="580" width="1200" height="50" fill="black" fill-opacity="0.3"/>
  <text x="50" y="611" font-family="Inter,Arial,sans-serif" font-size="20" font-weight="700" fill="white" opacity="0.9">J. Jacobs &amp; Associates Insurance</text>
  <text x="1150" y="611" text-anchor="end" font-family="Inter,Arial,sans-serif" font-size="18" fill="white" opacity="0.6">jjainsurance.com</text>
</svg>